<svg xmlns="http://www.w3.org/2000/svg" fill="none" viewBox="0 0 178 54" height="54" width="178">
<path fill="white" d="M40.7349 13.0329L40.9427 14.331C41.0985 15.5252 41.1765 16.7195 41.1505 17.9397C41.1505 20.6137 40.8388 23.2618 40.2153 25.8579C39.384 29.3628 37.9293 32.7118 35.9291 35.7233C33.6171 39.1502 30.2661 42.4993 25.4083 45.2512L24.8109 45.5887L24.2134 45.2512C19.3557 42.5512 16.0046 39.1762 13.6926 35.7233C11.6664 32.7118 10.2377 29.3887 9.4064 25.8579C8.78295 23.2618 8.47123 20.6137 8.47123 17.9397C8.47123 16.7454 8.52318 15.5252 8.67905 14.331L8.86088 13.0329C8.88686 12.9291 8.88686 12.8253 8.86088 12.7214C8.83491 12.6176 8.80893 12.5137 8.731 12.4358C8.67904 12.3579 8.60111 12.2801 8.52318 12.2281C8.44525 12.1762 8.34134 12.1502 8.26341 12.1243C8.1595 12.0983 8.05559 12.0983 7.95168 12.1243C7.84778 12.1502 7.74387 12.2022 7.66594 12.2541C7.588 12.306 7.51007 12.3839 7.45812 12.4618C7.40616 12.5656 7.38019 12.6695 7.35421 12.7733L7.14639 14.0714C6.99053 15.3435 6.9126 16.6416 6.9126 17.9397C6.9126 20.7435 7.2503 23.5214 7.89973 26.2474C8.34134 28.0906 8.93882 29.9079 9.69215 31.6474C10.4455 33.3868 11.3547 35.0483 12.4198 36.632C14.8616 40.2666 18.3945 43.8233 23.486 46.6272L24.4472 47.1724C24.5771 47.2243 24.707 47.2502 24.8368 47.2502C24.9667 47.2502 25.0966 47.2243 25.2265 47.1724L26.1876 46.6272C31.2532 43.7974 34.8121 40.2406 37.2539 36.632C39.384 33.4647 40.9167 29.9339 41.7739 26.2474C42.4234 23.5214 42.7351 20.7435 42.7351 17.9397C42.7351 16.6416 42.6572 15.3435 42.5013 14.0454L42.2935 12.7474C42.2675 12.6435 42.2415 12.5397 42.1896 12.4358C42.1376 12.3579 42.0597 12.2801 41.9818 12.2281C41.9038 12.1762 41.7999 12.1243 41.696 12.0983C41.5921 12.0724 41.4882 12.0724 41.3843 12.0983C41.2804 12.1243 41.1765 12.1503 41.0726 12.2022C40.9946 12.2541 40.9167 12.332 40.8647 12.4099C40.8128 12.4878 40.7608 12.5916 40.7349 12.6954V13.0329Z" clip-rule="evenodd" fill-rule="evenodd"></path>
<path fill="white" d="M13.2249 12.1498L24.8627 8.48918L36.7343 12.2276C36.8382 12.2536 36.9421 12.2536 37.046 12.2536C37.1499 12.2536 37.2538 12.2276 37.3577 12.1757C37.4616 12.1238 37.5395 12.0719 37.6175 11.968C37.6954 11.8901 37.7474 11.7863 37.7474 11.6824C37.7733 11.5786 37.7733 11.4748 37.7733 11.3709C37.7733 11.2671 37.7474 11.1632 37.6954 11.0594C37.6435 10.9555 37.5915 10.8776 37.5136 10.7998C37.4356 10.7219 37.3317 10.6699 37.2278 10.6699L25.0965 6.82764C24.9406 6.77572 24.7848 6.77572 24.6289 6.82764L12.7833 10.5661C12.6794 10.5921 12.6015 10.644 12.4976 10.6959C12.4196 10.7738 12.3417 10.8517 12.3157 10.9555C12.2638 11.0594 12.2378 11.1632 12.2378 11.2671C12.2378 11.3709 12.2378 11.4748 12.2638 11.5786C12.2897 11.6824 12.3417 11.7863 12.3937 11.8642C12.4456 11.9421 12.5495 12.0199 12.6534 12.0719C12.7314 12.1238 12.8353 12.1498 12.9652 12.1498C13.0171 12.1757 13.121 12.1757 13.2249 12.1498Z" clip-rule="evenodd" fill-rule="evenodd"></path>
<path fill="white" d="M7.48332 13.2659L24.1347 46.8082C24.1866 46.938 24.2905 47.0419 24.3945 47.1198C24.6542 47.2756 24.9659 47.2756 25.2257 47.1198C25.3556 47.0419 25.4595 46.938 25.5374 46.8082L35.6945 27.2073L35.7205 27.1813L42.2148 13.24C42.2667 13.1361 42.2927 13.0323 42.2927 12.9284C42.2927 12.8246 42.2927 12.7207 42.2408 12.6169C42.2148 12.513 42.1628 12.4092 42.0849 12.3313C42.0329 12.2534 41.929 12.1755 41.8511 12.1236C41.7732 12.0717 41.6693 12.0457 41.5394 12.0457C41.4355 12.0457 41.3316 12.0457 41.2277 12.0717C41.1237 12.0977 41.0198 12.1496 40.9419 12.2275C40.864 12.3054 40.786 12.3832 40.7601 12.4871L34.2658 26.4284L24.8101 44.6794L8.86011 12.4871C8.80816 12.4092 8.73022 12.3054 8.67827 12.2275C8.60034 12.1496 8.49643 12.0977 8.39252 12.0717C8.28861 12.0198 8.1847 12.0198 8.08079 12.0457C7.97689 12.0457 7.87298 12.0717 7.76907 12.1236C7.69114 12.1755 7.58723 12.2534 7.53528 12.3313C7.48332 12.4092 7.43137 12.513 7.40539 12.6169C7.37941 12.7207 7.35344 12.8246 7.37941 12.9284C7.40539 13.0582 7.43137 13.1621 7.48332 13.2659Z" clip-rule="evenodd" fill-rule="evenodd"></path>
<path fill="white" d="M15.4586 28.2207H34.0063C34.1102 28.2207 34.2141 28.1948 34.318 28.1688C34.4219 28.1428 34.4998 28.0649 34.5518 27.9871C34.6297 27.9092 34.6817 27.8313 34.7076 27.7274C34.7856 27.5198 34.7856 27.3121 34.7076 27.1044C34.6817 27.0005 34.6037 26.9226 34.5518 26.8448C34.4738 26.7669 34.3959 26.715 34.318 26.663C34.2141 26.6371 34.1102 26.6111 34.0063 26.6111H15.4586C15.3547 26.6111 15.2507 26.6371 15.1468 26.663C15.0429 26.689 14.965 26.7669 14.913 26.8448C14.8351 26.9226 14.7832 27.0005 14.7572 27.1044C14.6792 27.3121 14.6792 27.5198 14.7572 27.7274C14.7832 27.8313 14.8351 27.9092 14.913 27.9871C14.991 28.0649 15.0689 28.1169 15.1468 28.1688C15.2507 28.1948 15.3547 28.1948 15.4586 28.2207ZM67.1531 21.2371H55.0997C54.9958 21.2371 54.8919 21.263 54.788 21.289C54.6841 21.3149 54.6061 21.3928 54.5542 21.4707C54.4763 21.5486 54.4243 21.6265 54.3983 21.7303C54.3723 21.8342 54.3464 21.938 54.3464 22.0419V32.0371C54.3464 32.1409 54.3723 32.2448 54.3983 32.3486C54.4243 32.4524 54.4763 32.5303 54.5542 32.6082C54.6321 32.6861 54.71 32.738 54.788 32.7899C54.8919 32.8159 54.9958 32.8419 55.0997 32.8419H67.1531V34.5294H55.0997C54.9438 34.5294 54.788 34.5034 54.6321 34.4774C54.4763 34.4515 54.3204 34.3996 54.1645 34.3476C54.0087 34.2957 53.8788 34.2178 53.7489 34.1399C53.619 34.0361 53.5151 33.9323 53.3852 33.8284C53.1514 33.5948 52.9956 33.3351 52.8657 33.0496C52.8137 32.8938 52.7618 32.738 52.7358 32.5823C52.7098 32.4265 52.6838 32.2707 52.6838 32.115V22.0678C52.6838 21.9121 52.7098 21.7563 52.7358 21.6005C52.7618 21.4448 52.8137 21.289 52.8657 21.1332C52.9176 20.9774 52.9956 20.8217 53.0735 20.6919C53.1514 20.5621 53.2553 20.4323 53.3852 20.3284C53.4891 20.2246 53.619 20.1207 53.7489 20.0169C53.8788 19.939 54.0087 19.8611 54.1645 19.8092C54.3204 19.7573 54.4763 19.7053 54.6321 19.6794C54.788 19.6534 54.9438 19.6274 55.0997 19.6274H67.1531V21.2371ZM89.7792 19.5496V21.2371H78.1674V26.1957H87.4932V27.9092H78.1674V32.8678H89.7792V34.5553H76.5568V19.5496H89.7792Z" clip-rule="evenodd" fill-rule="evenodd"></path>
<path fill="white" d="M113.704 22.0932V26.4807C113.704 26.6365 113.678 26.7923 113.652 26.948C113.626 27.1038 113.574 27.2596 113.522 27.4153C113.47 27.5711 113.393 27.7269 113.315 27.8567C113.211 27.9865 113.133 28.1163 113.003 28.2201C112.899 28.324 112.769 28.4278 112.639 28.5317C112.509 28.6096 112.379 28.6875 112.224 28.7394C112.068 28.7913 111.912 28.8432 111.756 28.8951C111.6 28.9211 111.444 28.9471 111.288 28.9471H109.08L113.626 34.5288H111.444L106.924 28.9471H101.625C101.365 28.9471 101.105 28.9211 100.846 28.8692V34.5288H99.209V19.575H111.314C111.47 19.575 111.626 19.6009 111.782 19.6269C111.938 19.6528 112.094 19.7048 112.25 19.7567C112.405 19.8086 112.535 19.8865 112.665 19.9903C112.925 20.1721 113.133 20.4057 113.315 20.6653C113.393 20.7951 113.47 20.9509 113.522 21.1067C113.574 21.2624 113.626 21.4182 113.652 21.574C113.678 21.7557 113.704 21.9375 113.704 22.0932ZM101.599 27.2855H111.288C111.392 27.2855 111.496 27.2596 111.6 27.2336C111.704 27.2076 111.782 27.1557 111.834 27.0519C111.912 26.974 111.964 26.8961 111.99 26.7923C112.016 26.6884 112.042 26.5846 112.042 26.4807V22.0932C112.042 21.8855 111.964 21.6778 111.834 21.5221C111.704 21.3663 111.496 21.2625 111.288 21.2625H101.599C101.495 21.2625 101.391 21.2884 101.287 21.3144C101.183 21.3403 101.105 21.4182 101.053 21.4961C100.975 21.574 100.923 21.6519 100.897 21.7557C100.872 21.8596 100.846 21.9634 100.846 22.0673V26.4548C100.846 26.6625 100.923 26.8701 101.105 27.0259C101.209 27.1817 101.417 27.2855 101.599 27.2855Z"></path>
<path fill="white" d="M122.38 19.5496H136.876V21.2371H130.459V34.5294H128.823V21.2371H122.38V19.5496ZM145.708 34.5553V19.5755H147.344V34.5553H145.708ZM169.139 19.5496H171.243L165.191 27.0525L171.269 34.5553H169.139L163.736 27.9092H159.06V34.5553H157.424V19.5755H159.086V26.2217H163.762L169.139 19.5496Z" clip-rule="evenodd" fill-rule="evenodd"></path>
</svg>
