<svg xmlns="http://www.w3.org/2000/svg" fill="none" viewBox="0 0 110 43" height="43" width="110">
<g clip-path="url(#clip0_918_26463)">
<path fill="white" d="M78.4009 31.437V3.16162H84.0829V31.437H78.4009Z"></path>
<path fill="white" d="M12.1809 39.8359H0V11.5605H11.6916C17.3737 11.5605 20.6838 14.6591 20.6838 19.503C20.6838 22.6395 18.5571 24.6668 17.0854 25.3422C18.8429 26.1352 21.0909 27.9222 21.0909 31.6962C21.0909 36.9764 17.3737 39.8359 12.1809 39.8359ZM11.2415 16.4854H5.68207V22.9987H11.2402C13.6514 22.9987 15.0005 21.6884 15.0005 19.7408C15.0005 17.7969 13.6526 16.4854 11.2415 16.4854ZM11.6082 27.9627H5.68333V34.9136H11.6107C14.1862 34.9136 15.4101 33.3251 15.4101 31.4179C15.4101 29.512 14.1837 27.9627 11.6107 27.9627H11.6082ZM38.4216 28.2409V39.8359H32.78V28.2409L24.0318 11.5605H30.2045L35.6413 22.9582L40.9959 11.5605H47.1672L38.4216 28.2409ZM63.2766 39.8359H51.0956V11.5605H62.786C68.468 11.5605 71.7794 14.6591 71.7794 19.503C71.7794 22.6395 69.6528 24.6668 68.181 25.3422C69.9385 26.1352 72.1865 27.9222 72.1865 31.6962C72.1865 36.9764 68.4693 39.8359 63.2766 39.8359ZM62.3371 16.4854H56.7777V22.9987H62.3371C64.7483 22.9987 66.0974 21.6884 66.0974 19.7408C66.0974 17.7969 64.7483 16.4854 62.3371 16.4854ZM62.7038 27.9627H56.7764V34.9136H62.7038C65.2806 34.9136 66.5045 33.3251 66.5045 31.4179C66.5045 29.512 65.2806 27.9627 62.7038 27.9627ZM102.396 16.4866V39.8384H96.714V16.4854H89.1126V11.5605H110V16.4854L102.396 16.4866Z"></path>
</g>
<defs>
<clipPath id="clip0_918_26463">
<rect fill="white" height="43" width="110"></rect>
</clipPath>
</defs>
</svg>
