<svg xmlns="http://www.w3.org/2000/svg" fill="none" viewBox="0 0 95 27" height="27" width="95">
<g clip-path="url(#clip0_918_26451)">
<path fill="white" d="M27.8616 0H0.633222C0.465279 0 0.304219 0.0632114 0.185465 0.175729C0.0667136 0.288246 0 0.440854 0 0.599979V26.399C0 26.5581 0.0667136 26.7109 0.185465 26.8234C0.304219 26.9357 0.465279 26.9989 0.633222 26.9989H27.8616C28.0297 26.9989 28.1906 26.9357 28.3096 26.8234C28.4282 26.7109 28.4951 26.5581 28.4951 26.399V0.599979C28.4951 0.440854 28.4282 0.288246 28.3096 0.175729C28.1906 0.0632114 28.0297 0 27.8616 0ZM18.9966 17.3994C18.9966 17.5585 18.9299 17.7111 18.8112 17.8236C18.6924 17.9361 18.5314 17.9993 18.3634 17.9993H10.1315C9.96359 17.9993 9.80253 17.9361 9.68378 17.8236C9.56503 17.7111 9.49831 17.5585 9.49831 17.3994V9.59966C9.49831 9.44053 9.56503 9.28792 9.68378 9.17541C9.80253 9.06289 9.96359 8.99967 10.1315 8.99967H18.3634C18.5314 8.99967 18.6924 9.06289 18.8112 9.17541C18.9299 9.28792 18.9966 9.44053 18.9966 9.59966V17.3994Z"></path>
<path fill="white" d="M84.8633 9.00073H76.6312C76.2817 9.00073 75.998 9.26934 75.998 9.60071V17.4004C75.998 17.7318 76.2817 18.0004 76.6312 18.0004H84.8633C85.213 18.0004 85.4964 17.7318 85.4964 17.4004V9.60071C85.4964 9.26934 85.213 9.00073 84.8633 9.00073Z"></path>
<path fill="white" d="M75.3669 0.000488281H67.1351C66.7854 0.000488281 66.502 0.269109 66.502 0.600466V8.40019C66.502 8.73154 66.7854 9.00017 67.1351 9.00017H75.3669C75.7167 9.00017 76.0004 8.73154 76.0004 8.40019V0.600466C76.0004 0.269109 75.7167 0.000488281 75.3669 0.000488281Z"></path>
<path fill="white" d="M94.3667 0.000488281H86.1347C85.7851 0.000488281 85.5015 0.269109 85.5015 0.600466V8.40019C85.5015 8.73154 85.7851 9.00017 86.1347 9.00017H94.3667C94.7164 9.00017 94.9999 8.73154 94.9999 8.40019V0.600466C94.9999 0.269109 94.7164 0.000488281 94.3667 0.000488281Z"></path>
<path fill="white" d="M75.3669 18.0002H67.1351C66.7854 18.0002 66.502 18.2689 66.502 18.6002V26.4C66.502 26.7313 66.7854 27 67.1351 27H75.3669C75.7167 27 76.0004 26.7313 76.0004 26.4V18.6002C76.0004 18.2689 75.7167 18.0002 75.3669 18.0002Z"></path>
<path fill="white" d="M94.3667 18.0002H86.1347C85.7851 18.0002 85.5015 18.2689 85.5015 18.6002V26.4C85.5015 26.7313 85.7851 27 86.1347 27H94.3667C94.7164 27 94.9999 26.7313 94.9999 26.4V18.6002C94.9999 18.2689 94.7164 18.0002 94.3667 18.0002Z"></path>
<path fill="white" d="M61.1084 0.000488281H52.8766C52.5268 0.000488281 52.2432 0.269109 52.2432 0.600466V8.40019C52.2432 8.73154 52.5268 9.00017 52.8766 9.00017H61.1084C61.4581 9.00017 61.7416 8.73154 61.7416 8.40019V0.600466C61.7416 0.269109 61.4581 0.000488281 61.1084 0.000488281Z"></path>
<path fill="white" d="M61.1084 18.0002H52.8766C52.5268 18.0002 52.2432 18.2689 52.2432 18.6002V26.4C52.2432 26.7313 52.5268 27 52.8766 27H61.1084C61.4581 27 61.7416 26.7313 61.7416 26.4V18.6002C61.7416 18.2689 61.4581 18.0002 61.1084 18.0002Z"></path>
<path fill="white" d="M52.2404 9.59291C52.2404 9.43379 52.1736 9.28118 52.055 9.16867C51.9363 9.05614 51.7751 8.99293 51.6073 8.99293H42.7421V0.599979C42.7421 0.440854 42.6752 0.288246 42.5566 0.175729C42.4379 0.0632114 42.2767 0 42.1089 0H33.8771C33.709 0 33.5481 0.0632114 33.4291 0.175729C33.3105 0.288246 33.2437 0.440854 33.2437 0.599979V26.3856C33.2437 26.5447 33.3105 26.6972 33.4291 26.8098C33.5481 26.9223 33.709 26.9855 33.8771 26.9855H42.1089C42.2767 26.9855 42.4379 26.9223 42.5566 26.8098C42.6752 26.6972 42.7421 26.5447 42.7421 26.3856V17.9926H51.6073C51.7751 17.9926 51.9363 17.9294 52.055 17.8169C52.1736 17.7044 52.2404 17.5517 52.2404 17.3926V9.59291Z"></path>
</g>
<defs>
<clipPath id="clip0_918_26451">
<rect fill="white" height="27" width="95"></rect>
</clipPath>
</defs>
</svg>
