<svg xmlns="http://www.w3.org/2000/svg" fill="none" viewBox="0 0 224 63" height="63" width="224">
<rect stroke-width="0.616337" stroke="white" rx="14.6918" height="62.2788" width="222.664" y="0.308168" x="0.308168"></rect>
<path fill="white" d="M68.0945 22.2838C67.4532 22.2838 66.8552 22.1668 66.3005 21.9328C65.7545 21.6988 65.2779 21.3695 64.8705 20.9448C64.4632 20.5201 64.1469 20.0305 63.9215 19.4758C63.7049 18.9125 63.5965 18.3101 63.5965 17.6688C63.5965 17.0275 63.7049 16.4295 63.9215 15.8748C64.1469 15.3115 64.4589 14.8218 64.8575 14.4058C65.2649 13.9898 65.7415 13.6648 66.2875 13.4308C66.8335 13.1968 67.4229 13.0798 68.0555 13.0798C68.7402 13.0798 69.3512 13.2011 69.8885 13.4438C70.4345 13.6865 70.9112 14.0201 71.3185 14.4448L70.6685 15.0948C70.3565 14.7481 69.9795 14.4795 69.5375 14.2888C69.0955 14.0895 68.6015 13.9898 68.0555 13.9898C67.5529 13.9898 67.0892 14.0808 66.6645 14.2628C66.2485 14.4448 65.8802 14.7048 65.5595 15.0428C65.2475 15.3721 65.0049 15.7621 64.8315 16.2128C64.6669 16.6548 64.5845 17.1401 64.5845 17.6688C64.5845 18.1975 64.6712 18.6871 64.8445 19.1378C65.0179 19.5885 65.2605 19.9828 65.5725 20.3208C65.8845 20.6501 66.2529 20.9058 66.6775 21.0878C67.1022 21.2698 67.5659 21.3608 68.0685 21.3608C68.6405 21.3608 69.1475 21.2611 69.5895 21.0618C70.0402 20.8625 70.4215 20.5895 70.7335 20.2428L71.3835 20.9058C70.9849 21.3305 70.5082 21.6685 69.9535 21.9198C69.3989 22.1625 68.7792 22.2838 68.0945 22.2838ZM75.359 22.2838C74.7697 22.2838 74.2323 22.1408 73.747 21.8548C73.2703 21.5688 72.889 21.1831 72.603 20.6978C72.3257 20.2125 72.187 19.6708 72.187 19.0728C72.187 18.4835 72.3257 17.9505 72.603 17.4738C72.889 16.9971 73.2703 16.6201 73.747 16.3428C74.2323 16.0568 74.7697 15.9138 75.359 15.9138C75.957 15.9138 76.4943 16.0525 76.971 16.3298C77.4477 16.6071 77.8247 16.9885 78.102 17.4738C78.388 17.9505 78.531 18.4835 78.531 19.0728C78.531 19.6795 78.388 20.2255 78.102 20.7108C77.8247 21.1875 77.4477 21.5688 76.971 21.8548C76.4943 22.1408 75.957 22.2838 75.359 22.2838ZM75.359 21.3998C75.7923 21.3998 76.1737 21.3001 76.503 21.1008C76.841 20.9015 77.1053 20.6241 77.296 20.2688C77.4953 19.9135 77.595 19.5148 77.595 19.0728C77.595 18.6308 77.4953 18.2408 77.296 17.9028C77.1053 17.5561 76.841 17.2831 76.503 17.0838C76.1737 16.8845 75.7923 16.7848 75.359 16.7848C74.9343 16.7848 74.553 16.8845 74.215 17.0838C73.877 17.2831 73.6127 17.5561 73.422 17.9028C73.2313 18.2408 73.136 18.6308 73.136 19.0728C73.136 19.5235 73.2313 19.9265 73.422 20.2818C73.6127 20.6285 73.877 20.9015 74.215 21.1008C74.553 21.3001 74.9343 21.3998 75.359 21.3998ZM79.9787 22.1538V16.0438H80.8887V22.1538H79.9787ZM84.1777 22.1538V18.4098C84.1777 17.9071 84.026 17.5085 83.7227 17.2138C83.4193 16.9105 83.038 16.7588 82.5787 16.7588C82.2667 16.7588 81.9807 16.8281 81.7207 16.9668C81.4693 17.0968 81.2657 17.2831 81.1097 17.5258C80.9623 17.7685 80.8887 18.0588 80.8887 18.3968L80.4727 18.2278C80.4727 17.7598 80.5767 17.3525 80.7847 17.0058C80.9927 16.6591 81.27 16.3905 81.6167 16.1998C81.972 16.0091 82.3707 15.9138 82.8127 15.9138C83.246 15.9138 83.6317 16.0091 83.9697 16.1998C84.3163 16.3905 84.5893 16.6591 84.7887 17.0058C84.9967 17.3525 85.1007 17.7641 85.1007 18.2408V22.1538H84.1777ZM88.3897 22.1538V18.4098C88.3897 17.9071 88.238 17.5085 87.9347 17.2138C87.6313 16.9105 87.2457 16.7588 86.7777 16.7588C86.4743 16.7588 86.1927 16.8281 85.9327 16.9668C85.6813 17.0968 85.4777 17.2831 85.3217 17.5258C85.1743 17.7685 85.1007 18.0588 85.1007 18.3968L84.5547 18.2278C84.5807 17.7598 84.702 17.3525 84.9187 17.0058C85.144 16.6591 85.4343 16.3905 85.7897 16.1998C86.1537 16.0091 86.5523 15.9138 86.9857 15.9138C87.419 15.9138 87.809 16.0091 88.1557 16.1998C88.511 16.3905 88.7883 16.6591 88.9877 17.0058C89.1957 17.3525 89.2997 17.7641 89.2997 18.2408V22.1538H88.3897ZM91.0109 22.1538V16.0438H91.9339V22.1538H91.0109ZM91.4659 14.7178C91.2926 14.7178 91.1452 14.6571 91.0239 14.5358C90.9026 14.4058 90.8419 14.2541 90.8419 14.0808C90.8419 13.8988 90.9026 13.7471 91.0239 13.6258C91.1452 13.5045 91.2926 13.4438 91.4659 13.4438C91.6566 13.4438 91.8082 13.5045 91.9209 13.6258C92.0422 13.7471 92.1029 13.8988 92.1029 14.0808C92.1029 14.2541 92.0422 14.4058 91.9209 14.5358C91.8082 14.6571 91.6566 14.7178 91.4659 14.7178ZM98.2245 22.1538V18.5658C98.2245 18.0285 98.0641 17.5951 97.7435 17.2658C97.4315 16.9278 97.0155 16.7588 96.4955 16.7588C96.1401 16.7588 95.8281 16.8368 95.5595 16.9928C95.2908 17.1488 95.0785 17.3611 94.9225 17.6298C94.7665 17.8985 94.6885 18.2061 94.6885 18.5528L94.2725 18.3188C94.2725 17.8595 94.3808 17.4478 94.5975 17.0838C94.8141 16.7198 95.1045 16.4338 95.4685 16.2258C95.8411 16.0178 96.2658 15.9138 96.7425 15.9138C97.2105 15.9138 97.6265 16.0265 97.9905 16.2518C98.3545 16.4771 98.6361 16.7805 98.8355 17.1618C99.0435 17.5431 99.1475 17.9591 99.1475 18.4098V22.1538H98.2245ZM93.7785 22.1538V16.0438H94.6885V22.1538H93.7785ZM103.372 24.8578C102.756 24.8578 102.206 24.7408 101.721 24.5068C101.244 24.2815 100.858 23.9608 100.564 23.5448L101.162 22.9468C101.404 23.2761 101.712 23.5318 102.085 23.7138C102.457 23.8958 102.895 23.9868 103.398 23.9868C104.091 23.9868 104.641 23.8005 105.049 23.4278C105.465 23.0551 105.673 22.5481 105.673 21.9068V20.3858L105.855 18.9948L105.673 17.6168V16.0438H106.583V21.9068C106.583 22.4961 106.448 23.0118 106.18 23.4538C105.911 23.8958 105.534 24.2381 105.049 24.4808C104.572 24.7321 104.013 24.8578 103.372 24.8578ZM103.437 22.0888C102.873 22.0888 102.366 21.9545 101.916 21.6858C101.465 21.4171 101.11 21.0488 100.85 20.5808C100.59 20.1128 100.46 19.5841 100.46 18.9948C100.46 18.4055 100.585 17.8811 100.837 17.4218C101.097 16.9538 101.452 16.5855 101.903 16.3168C102.353 16.0481 102.86 15.9138 103.424 15.9138C103.9 15.9138 104.325 16.0048 104.698 16.1868C105.079 16.3688 105.382 16.6288 105.608 16.9668C105.842 17.2961 105.985 17.6861 106.037 18.1368V19.8658C105.985 20.3078 105.842 20.6978 105.608 21.0358C105.374 21.3651 105.07 21.6251 104.698 21.8158C104.325 21.9978 103.905 22.0888 103.437 22.0888ZM103.606 21.2178C104.03 21.2178 104.399 21.1268 104.711 20.9448C105.031 20.7628 105.278 20.5071 105.452 20.1778C105.634 19.8398 105.725 19.4455 105.725 18.9948C105.725 18.5528 105.634 18.1671 105.452 17.8378C105.278 17.5085 105.031 17.2485 104.711 17.0578C104.39 16.8671 104.017 16.7718 103.593 16.7718C103.168 16.7718 102.787 16.8671 102.449 17.0578C102.119 17.2485 101.859 17.5085 101.669 17.8378C101.487 18.1671 101.396 18.5528 101.396 18.9948C101.396 19.4281 101.491 19.8138 101.682 20.1518C101.872 20.4898 102.132 20.7541 102.462 20.9448C102.791 21.1268 103.172 21.2178 103.606 21.2178ZM113.081 22.2838C112.752 22.2838 112.435 22.2405 112.132 22.1538C111.829 22.0585 111.551 21.9285 111.3 21.7638C111.057 21.5991 110.845 21.4041 110.663 21.1788L111.248 20.5808C111.491 20.8755 111.764 21.0965 112.067 21.2438C112.379 21.3825 112.726 21.4518 113.107 21.4518C113.514 21.4518 113.831 21.3738 114.056 21.2178C114.29 21.0618 114.407 20.8451 114.407 20.5678C114.407 20.3078 114.325 20.1041 114.16 19.9568C113.995 19.8095 113.783 19.6925 113.523 19.6058C113.272 19.5191 113.003 19.4368 112.717 19.3588C112.431 19.2721 112.158 19.1681 111.898 19.0468C111.638 18.9168 111.426 18.7391 111.261 18.5138C111.105 18.2885 111.027 17.9938 111.027 17.6298C111.027 17.2831 111.109 16.9841 111.274 16.7328C111.447 16.4728 111.69 16.2735 112.002 16.1348C112.323 15.9875 112.7 15.9138 113.133 15.9138C113.592 15.9138 114.008 15.9961 114.381 16.1608C114.754 16.3255 115.053 16.5681 115.278 16.8888L114.693 17.4738C114.511 17.2398 114.281 17.0621 114.004 16.9408C113.735 16.8108 113.432 16.7458 113.094 16.7458C112.704 16.7458 112.405 16.8238 112.197 16.9798C111.998 17.1271 111.898 17.3221 111.898 17.5648C111.898 17.7988 111.98 17.9851 112.145 18.1238C112.31 18.2538 112.518 18.3621 112.769 18.4488C113.029 18.5268 113.302 18.6091 113.588 18.6958C113.874 18.7738 114.147 18.8821 114.407 19.0208C114.667 19.1508 114.875 19.3328 115.031 19.5668C115.196 19.7921 115.278 20.0998 115.278 20.4898C115.278 21.0358 115.079 21.4735 114.68 21.8028C114.29 22.1235 113.757 22.2838 113.081 22.2838ZM119.488 22.2838C118.899 22.2838 118.361 22.1408 117.876 21.8548C117.399 21.5688 117.018 21.1831 116.732 20.6978C116.455 20.2125 116.316 19.6708 116.316 19.0728C116.316 18.4835 116.455 17.9505 116.732 17.4738C117.018 16.9971 117.399 16.6201 117.876 16.3428C118.361 16.0568 118.899 15.9138 119.488 15.9138C120.086 15.9138 120.623 16.0525 121.1 16.3298C121.577 16.6071 121.954 16.9885 122.231 17.4738C122.517 17.9505 122.66 18.4835 122.66 19.0728C122.66 19.6795 122.517 20.2255 122.231 20.7108C121.954 21.1875 121.577 21.5688 121.1 21.8548C120.623 22.1408 120.086 22.2838 119.488 22.2838ZM119.488 21.3998C119.921 21.3998 120.303 21.3001 120.632 21.1008C120.97 20.9015 121.234 20.6241 121.425 20.2688C121.624 19.9135 121.724 19.5148 121.724 19.0728C121.724 18.6308 121.624 18.2408 121.425 17.9028C121.234 17.5561 120.97 17.2831 120.632 17.0838C120.303 16.8845 119.921 16.7848 119.488 16.7848C119.063 16.7848 118.682 16.8845 118.344 17.0838C118.006 17.2831 117.742 17.5561 117.551 17.9028C117.36 18.2408 117.265 18.6308 117.265 19.0728C117.265 19.5235 117.36 19.9265 117.551 20.2818C117.742 20.6285 118.006 20.9015 118.344 21.1008C118.682 21.3001 119.063 21.3998 119.488 21.3998ZM126.877 22.2838C126.287 22.2838 125.75 22.1408 125.265 21.8548C124.788 21.5688 124.407 21.1831 124.121 20.6978C123.843 20.2125 123.705 19.6708 123.705 19.0728C123.705 18.4835 123.843 17.9505 124.121 17.4738C124.407 16.9971 124.788 16.6201 125.265 16.3428C125.75 16.0568 126.287 15.9138 126.877 15.9138C127.475 15.9138 128.012 16.0525 128.489 16.3298C128.965 16.6071 129.342 16.9885 129.62 17.4738C129.906 17.9505 130.049 18.4835 130.049 19.0728C130.049 19.6795 129.906 20.2255 129.62 20.7108C129.342 21.1875 128.965 21.5688 128.489 21.8548C128.012 22.1408 127.475 22.2838 126.877 22.2838ZM126.877 21.3998C127.31 21.3998 127.691 21.3001 128.021 21.1008C128.359 20.9015 128.623 20.6241 128.814 20.2688C129.013 19.9135 129.113 19.5148 129.113 19.0728C129.113 18.6308 129.013 18.2408 128.814 17.9028C128.623 17.5561 128.359 17.2831 128.021 17.0838C127.691 16.8845 127.31 16.7848 126.877 16.7848C126.452 16.7848 126.071 16.8845 125.733 17.0838C125.395 17.2831 125.13 17.5561 124.94 17.9028C124.749 18.2408 124.654 18.6308 124.654 19.0728C124.654 19.5235 124.749 19.9265 124.94 20.2818C125.13 20.6285 125.395 20.9015 125.733 21.1008C126.071 21.3001 126.452 21.3998 126.877 21.3998ZM135.942 22.1538V18.5658C135.942 18.0285 135.782 17.5951 135.461 17.2658C135.149 16.9278 134.733 16.7588 134.213 16.7588C133.858 16.7588 133.546 16.8368 133.277 16.9928C133.009 17.1488 132.796 17.3611 132.64 17.6298C132.484 17.8985 132.406 18.2061 132.406 18.5528L131.99 18.3188C131.99 17.8595 132.099 17.4478 132.315 17.0838C132.532 16.7198 132.822 16.4338 133.186 16.2258C133.559 16.0178 133.984 15.9138 134.46 15.9138C134.928 15.9138 135.344 16.0265 135.708 16.2518C136.072 16.4771 136.354 16.7805 136.553 17.1618C136.761 17.5431 136.865 17.9591 136.865 18.4098V22.1538H135.942ZM131.496 22.1538V16.0438H132.406V22.1538H131.496ZM142.31 22.1538V13.4698H143.22V22.1538H142.31ZM140.763 16.8628V16.0438H144.754V16.8628H140.763ZM148.56 22.2838C147.971 22.2838 147.433 22.1408 146.948 21.8548C146.471 21.5688 146.09 21.1831 145.804 20.6978C145.527 20.2125 145.388 19.6708 145.388 19.0728C145.388 18.4835 145.527 17.9505 145.804 17.4738C146.09 16.9971 146.471 16.6201 146.948 16.3428C147.433 16.0568 147.971 15.9138 148.56 15.9138C149.158 15.9138 149.695 16.0525 150.172 16.3298C150.649 16.6071 151.026 16.9885 151.303 17.4738C151.589 17.9505 151.732 18.4835 151.732 19.0728C151.732 19.6795 151.589 20.2255 151.303 20.7108C151.026 21.1875 150.649 21.5688 150.172 21.8548C149.695 22.1408 149.158 22.2838 148.56 22.2838ZM148.56 21.3998C148.993 21.3998 149.375 21.3001 149.704 21.1008C150.042 20.9015 150.306 20.6241 150.497 20.2688C150.696 19.9135 150.796 19.5148 150.796 19.0728C150.796 18.6308 150.696 18.2408 150.497 17.9028C150.306 17.5561 150.042 17.2831 149.704 17.0838C149.375 16.8845 148.993 16.7848 148.56 16.7848C148.135 16.7848 147.754 16.8845 147.416 17.0838C147.078 17.2831 146.814 17.5561 146.623 17.9028C146.432 18.2408 146.337 18.6308 146.337 19.0728C146.337 19.5235 146.432 19.9265 146.623 20.2818C146.814 20.6285 147.078 20.9015 147.416 21.1008C147.754 21.3001 148.135 21.3998 148.56 21.3998Z" opacity="0.7"></path>
<path fill="white" d="M81.2337 45.8849H79.4057L79.1975 43.5735C78.7964 44.2977 78.1408 44.9218 77.2307 45.4457C76.3206 45.9696 75.2254 46.2316 73.945 46.2316C72.5413 46.2316 71.2455 45.9157 70.0577 45.2839C68.87 44.6367 67.8904 43.6505 67.1191 42.3253C66.3633 41.0001 65.9854 39.4515 65.9854 37.6794C65.9854 35.9073 66.3864 34.3587 67.1886 33.0334C67.9907 31.7082 68.9934 30.7297 70.1966 30.0979C71.4152 29.4662 72.7187 29.1503 74.107 29.1503C75.8655 29.1503 77.3927 29.6048 78.6884 30.514C79.9996 31.4077 80.8943 32.602 81.3725 34.0967L79.3132 34.975C78.943 33.7885 78.2951 32.8716 77.3695 32.2244C76.4594 31.5618 75.3719 31.2305 74.107 31.2305C72.5182 31.2305 71.153 31.793 70.0115 32.9179C68.87 34.0428 68.2992 35.6299 68.2992 37.6794C68.2992 39.7442 68.8545 41.3468 69.9652 42.4871C71.0913 43.612 72.441 44.1744 74.0144 44.1744C74.8783 44.1744 75.6419 44.0358 76.3052 43.7584C76.9839 43.481 77.5084 43.1189 77.8786 42.672C78.2642 42.2097 78.5496 41.7475 78.7347 41.2852C78.9353 40.8229 79.051 40.3606 79.0818 39.8983H73.3897V37.8643H81.2337V45.8849ZM86.7788 43.2499C87.4575 43.9433 88.2828 44.29 89.2546 44.29C90.2265 44.29 91.044 43.9433 91.7073 43.2499C92.3861 42.541 92.7254 41.5626 92.7254 40.3144C92.7254 39.0816 92.3861 38.1185 91.7073 37.4251C91.044 36.7163 90.2265 36.3619 89.2546 36.3619C88.2828 36.3619 87.4575 36.7163 86.7788 37.4251C86.1155 38.1185 85.7838 39.0816 85.7838 40.3144C85.7838 41.5626 86.1155 42.541 86.7788 43.2499ZM85.1591 36.1076C86.2389 34.9827 87.6041 34.4203 89.2546 34.4203C90.9052 34.4203 92.2626 34.9827 93.327 36.1076C94.4068 37.2171 94.9467 38.6194 94.9467 40.3144C94.9467 42.0248 94.4145 43.4425 93.3502 44.5674C92.2858 45.6769 90.9206 46.2316 89.2546 46.2316C87.5887 46.2316 86.2235 45.6769 85.1591 44.5674C84.0947 43.4425 83.5625 42.0248 83.5625 40.3144C83.5625 38.6194 84.0947 37.2171 85.1591 36.1076ZM100.02 43.2499C100.699 43.9433 101.524 44.29 102.496 44.29C103.468 44.29 104.285 43.9433 104.949 43.2499C105.628 42.541 105.967 41.5626 105.967 40.3144C105.967 39.0816 105.628 38.1185 104.949 37.4251C104.285 36.7163 103.468 36.3619 102.496 36.3619C101.524 36.3619 100.699 36.7163 100.02 37.4251C99.3569 38.1185 99.0253 39.0816 99.0253 40.3144C99.0253 41.5626 99.3569 42.541 100.02 43.2499ZM98.4005 36.1076C99.4804 34.9827 100.846 34.4203 102.496 34.4203C104.147 34.4203 105.504 34.9827 106.568 36.1076C107.648 37.2171 108.188 38.6194 108.188 40.3144C108.188 42.0248 107.656 43.4425 106.592 44.5674C105.527 45.6769 104.162 46.2316 102.496 46.2316C100.83 46.2316 99.4649 45.6769 98.4005 44.5674C97.3362 43.4425 96.804 42.0248 96.804 40.3144C96.804 38.6194 97.3362 37.2171 98.4005 36.1076ZM110.161 46.4859L112.267 46.0005C112.344 46.7863 112.66 47.4335 113.215 47.942C113.771 48.466 114.465 48.7279 115.298 48.7279C117.565 48.7279 118.699 47.526 118.699 45.1221V43.5273C118.422 44.0666 117.982 44.5057 117.38 44.8448C116.794 45.1838 116.1 45.3533 115.298 45.3533C113.817 45.3533 112.591 44.8525 111.619 43.8509C110.662 42.8338 110.184 41.5394 110.184 39.9677C110.184 38.4421 110.662 37.1632 111.619 36.1307C112.575 35.0829 113.802 34.559 115.298 34.559C116.995 34.559 118.136 35.1445 118.722 36.3156V34.767H120.875V45.0528C120.875 45.7924 120.774 46.4782 120.574 47.1099C120.389 47.7571 120.088 48.3504 119.671 48.8897C119.255 49.4291 118.668 49.8528 117.913 50.161C117.172 50.4692 116.301 50.6233 115.298 50.6233C113.925 50.6233 112.76 50.2303 111.804 49.4445C110.848 48.674 110.3 47.6878 110.161 46.4859ZM115.622 43.5273C116.563 43.5273 117.326 43.2037 117.913 42.5565C118.499 41.8939 118.792 41.0309 118.792 39.9677C118.792 38.9044 118.499 38.0492 117.913 37.402C117.326 36.7394 116.563 36.4081 115.622 36.4081C114.665 36.4081 113.886 36.7317 113.285 37.3789C112.699 38.0261 112.406 38.889 112.406 39.9677C112.406 41.0617 112.691 41.9324 113.262 42.5796C113.848 43.2114 114.635 43.5273 115.622 43.5273ZM126.523 45.8849H124.348V29.1503H126.523V45.8849ZM131.634 39.1818H137.719C137.689 38.3497 137.411 37.6717 136.886 37.1478C136.362 36.6084 135.622 36.3388 134.665 36.3388C133.801 36.3388 133.092 36.6238 132.536 37.194C131.981 37.7487 131.68 38.4113 131.634 39.1818ZM138.043 42.0711L139.918 42.7183C139.594 43.7507 138.992 44.5982 138.113 45.2608C137.234 45.908 136.169 46.2316 134.92 46.2316C133.362 46.2316 132.035 45.7 130.94 44.6367C129.86 43.5581 129.32 42.1096 129.32 40.2913C129.32 38.5962 129.845 37.194 130.894 36.0845C131.942 34.975 133.192 34.4203 134.642 34.4203C136.323 34.4203 137.635 34.9519 138.576 36.0152C139.517 37.063 139.987 38.473 139.987 40.245C139.987 40.5224 139.972 40.7536 139.941 40.9385H131.565C131.58 41.9247 131.904 42.7337 132.536 43.3655C133.184 43.9972 133.979 44.3131 134.92 44.3131C136.509 44.3131 137.55 43.5658 138.043 42.0711ZM151.047 37.1478H154.333C155.305 37.1478 156.076 36.9012 156.647 36.4081C157.218 35.8996 157.503 35.2216 157.503 34.3741C157.503 33.5111 157.218 32.8254 156.647 32.3169C156.076 31.793 155.305 31.531 154.333 31.531H151.047V37.1478ZM154.749 39.1818H151.047V45.8849H148.78V29.497H154.749C156.246 29.497 157.464 29.9593 158.405 30.8838C159.346 31.8084 159.817 32.9641 159.817 34.3509C159.817 35.7532 159.346 36.9089 158.405 37.8181C157.464 38.7272 156.246 39.1818 154.749 39.1818ZM164.303 45.8849H162.128V29.1503H164.303V45.8849ZM167.309 42.9032C167.309 41.9478 167.618 41.185 168.235 40.6149C168.852 40.0293 169.669 39.6672 170.688 39.5285L173.696 39.0893C174.266 39.0123 174.552 38.7349 174.552 38.2572C174.552 37.6717 174.351 37.194 173.95 36.8242C173.549 36.4543 172.947 36.2694 172.145 36.2694C171.405 36.2694 170.819 36.4774 170.387 36.8935C169.955 37.2941 169.7 37.8335 169.623 38.5115L167.541 38.0261C167.649 36.9628 168.135 36.0999 168.998 35.4373C169.862 34.7593 170.896 34.4203 172.099 34.4203C173.672 34.4203 174.837 34.8055 175.593 35.576C176.349 36.3311 176.727 37.3018 176.727 38.4884V44.0589C176.727 44.7215 176.773 45.3302 176.866 45.8849H174.737C174.66 45.4226 174.621 44.9218 174.621 44.3825C174.313 44.8756 173.858 45.307 173.256 45.6769C172.67 46.0467 171.929 46.2316 171.035 46.2316C169.939 46.2316 169.045 45.908 168.351 45.2608C167.656 44.5982 167.309 43.8123 167.309 42.9032ZM171.335 44.4056C172.307 44.4056 173.086 44.1436 173.672 43.6197C174.259 43.0958 174.552 42.2637 174.552 41.1234V40.6149L171.15 41.1234C170.657 41.2004 170.263 41.3776 169.97 41.655C169.677 41.9324 169.531 42.3099 169.531 42.7876C169.531 43.2191 169.693 43.5966 170.017 43.9202C170.356 44.2438 170.796 44.4056 171.335 44.4056ZM182.667 50.5308H180.283L183.06 44.6598L178.27 34.767H180.769L184.24 42.4409L187.572 34.767H189.909L182.667 50.5308Z"></path>
<path fill="white" d="M30.8496 45.4367C30.1969 45.858 29.4131 45.9854 28.6777 45.8119L41.5991 32.9043L45.7869 37.0876L30.8496 45.4367Z"></path>
<path fill="white" d="M27.0746 44.7595C26.7143 44.2809 26.5068 43.6933 26.5068 43.0716V20.0794C26.5068 19.4577 26.7143 18.8701 27.0746 18.3915L40.2727 31.5754L27.0746 44.7595Z"></path>
<path fill="white" d="M51.2541 34.0307L47.4903 36.1343L42.9277 31.5765L47.4907 27.0186L51.2548 29.1224C52.1565 29.627 52.6949 30.5444 52.6949 31.5765C52.6949 32.6086 52.1565 33.5259 51.2541 34.0307Z"></path>
<path fill="white" d="M41.6016 30.251L28.6812 17.3442C28.8929 17.2943 29.1086 17.2676 29.3241 17.2676C29.8569 17.2676 30.3878 17.4189 30.8522 17.7186L45.7896 26.0676L41.6016 30.251Z"></path>
</svg>
