<svg xmlns="http://www.w3.org/2000/svg" fill="none" viewBox="0 0 161 42" height="42" width="161">
<path fill="white" d="M16.611 21L13.4179 24.1657L10.2275 21L13.4179 17.8343L16.611 21ZM24.3524 13.313L29.8196 18.7407L33.01 15.575L24.3524 6.98438L15.6948 15.575L18.8851 18.7407L24.3524 13.313ZM35.2896 17.8343L32.0992 21L35.2896 24.1657L38.4772 21L35.2896 17.8343ZM24.3524 28.6869L18.8851 23.262L15.6948 26.4249L24.3524 35.0156L33.01 26.4249L29.8196 23.262L24.3524 28.6869ZM24.3524 24.1657L27.5427 21L24.3524 17.8343L21.162 21L24.3524 24.1657ZM58.0223 24.4696V24.4258C58.0223 22.361 56.9184 21.3286 55.1218 20.6494C56.2257 20.0333 57.1585 19.0666 57.1585 17.3331V17.2893C57.1585 14.874 55.2101 13.313 52.0445 13.313H44.8579V28.6869H52.2267C55.7234 28.6869 58.0279 27.2821 58.0279 24.4696H58.0223ZM53.7722 17.8973C53.7722 19.0392 52.8201 19.5239 51.3159 19.5239H48.178V16.2788H51.5423C52.9801 16.2788 53.7777 16.8484 53.7777 17.8589L53.7722 17.8973ZM54.636 24.0479C54.636 25.1899 53.728 25.7157 52.2212 25.7157H48.178V22.3391H52.1163C53.866 22.3391 54.6415 22.9772 54.6415 24.0096L54.636 24.0479ZM65.1841 28.6869V13.313H61.7647V28.6869H65.1841ZM83.5066 28.6869V13.313H80.1314V22.78L72.873 13.313H69.7296V28.6869H73.0938V18.9132L80.595 28.6869H83.5066ZM102.387 28.6869L95.7355 13.2035H92.592L85.9546 28.6869H89.4292L90.8506 25.2392H97.4024L98.8182 28.6869H102.387ZM96.1908 22.2515H92.0621L94.121 17.2674L96.1908 22.2515ZM118.634 28.6869V13.313H115.259V22.78L107.997 13.313H104.857V28.6869H108.218V18.9132L115.722 28.6869H118.634ZM136.228 26.2058L134.061 24.0315C132.844 25.1269 131.76 25.8307 129.988 25.8307C127.333 25.8307 125.495 23.6399 125.495 21V20.9562C125.495 18.3217 127.377 16.1693 129.988 16.1693C131.536 16.1693 132.748 16.8265 133.951 17.9027L136.112 15.4217C134.674 14.0168 132.927 13.0501 130.004 13.0501C125.246 13.0501 121.926 16.6293 121.926 20.9918V21.0356C121.926 25.45 125.313 28.9416 129.872 28.9416C132.855 28.9498 134.624 27.8955 136.217 26.2058H136.228ZM150.772 28.6869V25.6746H142.349V22.4404H149.654V19.4281H142.349V16.3226H150.651V13.3103H138.963V28.6842L150.772 28.6869Z"></path>
</svg>
