<svg xmlns="http://www.w3.org/2000/svg" fill="none" viewBox="0 0 106 49" height="49" width="106">
<path fill="white" d="M25.107 20.7232V16.1992H26.615V32.7832H25.107V25.2452H23.6V32.7832H22.094V25.2452H5.508V26.7532H20.584V32.7832H19.076V28.2612H11.54V32.7832H10.032V28.2612H8.524V32.7832H7.016V28.2612H5.509V32.7832H4V16.2002H5.508V23.7402H7.015V16.1992H8.523V23.7392H25.107V22.2302H10.031V16.1992H11.539V20.7222H19.076V16.1992H20.584V20.7222H22.092V16.1992H23.6V20.7222H25.108L25.107 20.7232ZM102 21.7282H100.492V27.2562H102V21.7282ZM89.938 25.7482H88.43V27.2562H89.938V25.7482ZM40.184 21.7282V23.7392H35.66V21.7292H34.153V27.2562H35.66V25.2462H40.183V27.2562H41.691V21.7292H40.183L40.184 21.7282ZM67.324 25.2452H68.832V27.2562H67.324V25.2452ZM68.83 21.7282H67.323V23.7382H62.8V21.7282H61.294V27.2562H62.8V25.2462L67.324 25.2452L68.831 23.7392L68.83 21.7282ZM43.2 21.7282H50.739V27.2562H49.231V25.2462H44.71V27.2562H43.2V21.7282ZM44.708 23.2362V23.7392H49.231V23.2362H44.71H44.708ZM59.783 23.2362V21.7292H52.244V27.2572H59.783V25.7492H53.753V23.2372H59.783V23.2362ZM77.876 21.7282V23.2362H71.846V23.7392H77.876V25.2462H71.846V25.7482H77.876V27.2562H70.337V21.7292L77.876 21.7282ZM85.414 21.7282V25.2462L80.891 21.7282H79.383V27.2562H80.891V23.7392L85.414 27.2562H86.922V21.7292L85.414 21.7282ZM92.953 21.7282H98.984V27.2562H97.476V25.2462H92.953V27.2562H91.445V23.2362L92.953 21.7282ZM92.953 23.7392H97.476V23.2362H92.953V23.7392Z" clip-rule="evenodd" fill-rule="evenodd"></path>
</svg>
