<svg xmlns="http://www.w3.org/2000/svg" fill="none" viewBox="0 0 210 63" height="63" width="210">
<rect stroke-width="0.616337" stroke="white" rx="14.6918" height="62.2788" width="209.254" y="0.308168" x="0.308168"></rect>
<path fill="white" d="M75.7058 45.8848L73.9247 41.3082H66.6616L64.9268 45.8848H62.498L69.021 29.4969H71.6348L78.1577 45.8848H75.7058ZM70.27 31.8545L67.4712 39.2048H73.1151L70.27 31.8545ZM82.2838 50.2765H80.1326V34.7669H82.2375V36.5004C82.5614 35.9149 83.0471 35.4372 83.6948 35.0674C84.3424 34.6975 85.0981 34.5126 85.9616 34.5126C87.5654 34.5126 88.8144 35.0597 89.7088 36.1537C90.6186 37.2478 91.0735 38.6346 91.0735 40.3143C91.0735 42.0093 90.6032 43.4116 89.6626 44.521C88.7373 45.6305 87.4805 46.1852 85.8922 46.1852C85.0749 46.1852 84.3502 46.0157 83.7179 45.6767C83.0857 45.3377 82.6076 44.9063 82.2838 44.3823V50.2765ZM88.853 40.3143C88.853 39.1894 88.5523 38.2648 87.9509 37.5406C87.3649 36.8009 86.5707 36.4311 85.5684 36.4311C84.5815 36.4311 83.7796 36.8009 83.1628 37.5406C82.5614 38.2648 82.2607 39.1894 82.2607 40.3143C82.2607 41.47 82.5614 42.4176 83.1628 43.1573C83.7796 43.8815 84.5815 44.2437 85.5684 44.2437C86.5553 44.2437 87.3495 43.8815 87.9509 43.1573C88.5523 42.4176 88.853 41.47 88.853 40.3143ZM95.9953 50.2765H93.8441V34.7669H95.949V36.5004C96.2728 35.9149 96.7586 35.4372 97.4062 35.0674C98.0539 34.6975 98.8095 34.5126 99.6731 34.5126C101.277 34.5126 102.526 35.0597 103.42 36.1537C104.33 37.2478 104.785 38.6346 104.785 40.3143C104.785 42.0093 104.315 43.4116 103.374 44.521C102.449 45.6305 101.192 46.1852 99.6037 46.1852C98.7864 46.1852 98.0616 46.0157 97.4294 45.6767C96.7971 45.3377 96.3191 44.9063 95.9953 44.3823V50.2765ZM102.564 40.3143C102.564 39.1894 102.264 38.2648 101.662 37.5406C101.076 36.8009 100.282 36.4311 99.2798 36.4311C98.2929 36.4311 97.491 36.8009 96.8742 37.5406C96.2728 38.2648 95.9721 39.1894 95.9721 40.3143C95.9721 41.47 96.2728 42.4176 96.8742 43.1573C97.491 43.8815 98.2929 44.2437 99.2798 44.2437C100.267 44.2437 101.061 43.8815 101.662 43.1573C102.264 42.4176 102.564 41.47 102.564 40.3143ZM124.025 33.2182L121.99 33.9348C121.882 33.2259 121.535 32.5864 120.949 32.0163C120.363 31.4307 119.553 31.138 118.52 31.138C117.61 31.138 116.855 31.3999 116.253 31.9238C115.651 32.4478 115.351 33.095 115.351 33.8654C115.351 34.4664 115.528 34.9749 115.883 35.391C116.253 35.807 116.778 36.0921 117.456 36.2462L119.908 36.7778C121.265 37.0706 122.313 37.6253 123.054 38.442C123.794 39.2433 124.164 40.2218 124.164 41.3775C124.164 42.7027 123.64 43.843 122.591 44.7984C121.542 45.7538 120.178 46.2315 118.497 46.2315C116.662 46.2315 115.219 45.7538 114.171 44.7984C113.138 43.8276 112.536 42.6796 112.367 41.3544L114.541 40.661C114.633 41.6472 115.019 42.4793 115.698 43.1573C116.377 43.8353 117.302 44.1743 118.474 44.1743C119.553 44.1743 120.386 43.9278 120.972 43.4347C121.558 42.9416 121.851 42.3175 121.851 41.5624C121.851 40.9461 121.643 40.4144 121.226 39.9676C120.81 39.5053 120.201 39.1894 119.399 39.0199L117.063 38.5114C115.844 38.2494 114.873 37.7332 114.148 36.9627C113.423 36.1922 113.061 35.2137 113.061 34.0272C113.061 32.7328 113.585 31.6002 114.633 30.6294C115.698 29.6432 116.978 29.1501 118.474 29.1501C120.155 29.1501 121.442 29.5585 122.337 30.3752C123.231 31.1919 123.794 32.1396 124.025 33.2182ZM129.739 31.2535V34.7669H132.144V36.7316H129.739V42.5101C129.739 43.034 129.854 43.4193 130.085 43.6658C130.332 43.9124 130.733 44.0356 131.288 44.0356C131.612 44.0356 131.897 44.0048 132.144 43.9432V45.7923C131.774 45.931 131.281 46.0003 130.664 46.0003C129.708 46.0003 128.952 45.723 128.397 45.1682C127.842 44.6135 127.564 43.8353 127.564 42.8337V36.7316H125.436V34.7669H126.038C126.608 34.7669 127.032 34.6128 127.31 34.3046C127.603 33.981 127.749 33.5649 127.749 33.0564V31.2535H129.739ZM137.223 43.2498C137.902 43.9432 138.727 44.2899 139.698 44.2899C140.67 44.2899 141.487 43.9432 142.15 43.2498C142.828 42.5409 143.168 41.5624 143.168 40.3143C143.168 39.0815 142.828 38.1184 142.15 37.425C141.487 36.7162 140.67 36.3618 139.698 36.3618C138.727 36.3618 137.902 36.7162 137.223 37.425C136.56 38.1184 136.228 39.0815 136.228 40.3143C136.228 41.5624 136.56 42.5409 137.223 43.2498ZM135.604 36.1075C136.683 34.9826 138.048 34.4202 139.698 34.4202C141.348 34.4202 142.705 34.9826 143.769 36.1075C144.849 37.217 145.388 38.6192 145.388 40.3143C145.388 42.0247 144.856 43.4424 143.792 44.5673C142.728 45.6767 141.363 46.2315 139.698 46.2315C138.033 46.2315 136.668 45.6767 135.604 44.5673C134.54 43.4424 134.008 42.0247 134.008 40.3143C134.008 38.6192 134.54 37.217 135.604 36.1075ZM154.347 34.6513V36.9627C154.023 36.9165 153.707 36.8934 153.398 36.8934C151.363 36.8934 150.345 38.0337 150.345 40.3143V45.8848H148.171V34.7669H150.299V36.7085C150.977 35.2908 152.087 34.582 153.629 34.582C153.876 34.582 154.115 34.6051 154.347 34.6513ZM157.962 39.1817H164.045C164.014 38.3496 163.737 37.6716 163.212 37.1476C162.688 36.6083 161.948 36.3386 160.992 36.3386C160.128 36.3386 159.419 36.6237 158.864 37.1939C158.309 37.7486 158.008 38.4112 157.962 39.1817ZM164.369 42.0709L166.242 42.7181C165.919 43.7506 165.317 44.5981 164.438 45.2607C163.559 45.9079 162.495 46.2315 161.246 46.2315C159.689 46.2315 158.362 45.6999 157.268 44.6366C156.188 43.5579 155.648 42.1095 155.648 40.2912C155.648 38.5961 156.173 37.1939 157.221 36.0844C158.27 34.9749 159.519 34.4202 160.969 34.4202C162.649 34.4202 163.96 34.9518 164.901 36.015C165.841 37.0629 166.312 38.4728 166.312 40.2449C166.312 40.5223 166.296 40.7534 166.266 40.9383H157.892C157.908 41.9246 158.231 42.7335 158.864 43.3653C159.511 43.9971 160.305 44.313 161.246 44.313C162.834 44.313 163.875 43.5657 164.369 42.0709Z"></path>
<path fill="white" d="M68.0945 22.2853C67.4532 22.2853 66.8552 22.1683 66.3005 21.9343C65.7545 21.7003 65.2779 21.3709 64.8705 20.9463C64.4632 20.5216 64.1469 20.0319 63.9215 19.4773C63.7049 18.9139 63.5965 18.3116 63.5965 17.6703C63.5965 17.0289 63.7049 16.4309 63.9215 15.8763C64.1469 15.3129 64.4589 14.8233 64.8575 14.4073C65.2649 13.9913 65.7415 13.6663 66.2875 13.4323C66.8335 13.1983 67.4229 13.0813 68.0555 13.0813C68.7402 13.0813 69.3512 13.2026 69.8885 13.4453C70.4345 13.6879 70.9112 14.0216 71.3185 14.4463L70.6685 15.0963C70.3565 14.7496 69.9795 14.4809 69.5375 14.2903C69.0955 14.0909 68.6015 13.9913 68.0555 13.9913C67.5529 13.9913 67.0892 14.0823 66.6645 14.2643C66.2485 14.4463 65.8802 14.7063 65.5595 15.0443C65.2475 15.3736 65.0049 15.7636 64.8315 16.2143C64.6669 16.6563 64.5845 17.1416 64.5845 17.6703C64.5845 18.1989 64.6712 18.6886 64.8445 19.1393C65.0179 19.5899 65.2605 19.9843 65.5725 20.3223C65.8845 20.6516 66.2529 20.9073 66.6775 21.0893C67.1022 21.2713 67.5659 21.3623 68.0685 21.3623C68.6405 21.3623 69.1475 21.2626 69.5895 21.0633C70.0402 20.8639 70.4215 20.5909 70.7335 20.2443L71.3835 20.9073C70.9849 21.3319 70.5082 21.6699 69.9535 21.9213C69.3989 22.1639 68.7792 22.2853 68.0945 22.2853ZM75.359 22.2853C74.7697 22.2853 74.2323 22.1423 73.747 21.8563C73.2703 21.5703 72.889 21.1846 72.603 20.6993C72.3257 20.2139 72.187 19.6723 72.187 19.0743C72.187 18.4849 72.3257 17.9519 72.603 17.4753C72.889 16.9986 73.2703 16.6216 73.747 16.3443C74.2323 16.0583 74.7697 15.9153 75.359 15.9153C75.957 15.9153 76.4943 16.0539 76.971 16.3313C77.4477 16.6086 77.8247 16.9899 78.102 17.4753C78.388 17.9519 78.531 18.4849 78.531 19.0743C78.531 19.6809 78.388 20.2269 78.102 20.7123C77.8247 21.1889 77.4477 21.5703 76.971 21.8563C76.4943 22.1423 75.957 22.2853 75.359 22.2853ZM75.359 21.4013C75.7923 21.4013 76.1737 21.3016 76.503 21.1023C76.841 20.9029 77.1053 20.6256 77.296 20.2703C77.4953 19.9149 77.595 19.5163 77.595 19.0743C77.595 18.6323 77.4953 18.2423 77.296 17.9043C77.1053 17.5576 76.841 17.2846 76.503 17.0853C76.1737 16.8859 75.7923 16.7863 75.359 16.7863C74.9343 16.7863 74.553 16.8859 74.215 17.0853C73.877 17.2846 73.6127 17.5576 73.422 17.9043C73.2313 18.2423 73.136 18.6323 73.136 19.0743C73.136 19.5249 73.2313 19.9279 73.422 20.2833C73.6127 20.6299 73.877 20.9029 74.215 21.1023C74.553 21.3016 74.9343 21.4013 75.359 21.4013ZM79.9787 22.1553V16.0453H80.8887V22.1553H79.9787ZM84.1777 22.1553V18.4113C84.1777 17.9086 84.026 17.5099 83.7227 17.2153C83.4193 16.9119 83.038 16.7603 82.5787 16.7603C82.2667 16.7603 81.9807 16.8296 81.7207 16.9683C81.4693 17.0983 81.2657 17.2846 81.1097 17.5273C80.9623 17.7699 80.8887 18.0603 80.8887 18.3983L80.4727 18.2293C80.4727 17.7613 80.5767 17.3539 80.7847 17.0073C80.9927 16.6606 81.27 16.3919 81.6167 16.2013C81.972 16.0106 82.3707 15.9153 82.8127 15.9153C83.246 15.9153 83.6317 16.0106 83.9697 16.2013C84.3163 16.3919 84.5893 16.6606 84.7887 17.0073C84.9967 17.3539 85.1007 17.7656 85.1007 18.2423V22.1553H84.1777ZM88.3897 22.1553V18.4113C88.3897 17.9086 88.238 17.5099 87.9347 17.2153C87.6313 16.9119 87.2457 16.7603 86.7777 16.7603C86.4743 16.7603 86.1927 16.8296 85.9327 16.9683C85.6813 17.0983 85.4777 17.2846 85.3217 17.5273C85.1743 17.7699 85.1007 18.0603 85.1007 18.3983L84.5547 18.2293C84.5807 17.7613 84.702 17.3539 84.9187 17.0073C85.144 16.6606 85.4343 16.3919 85.7897 16.2013C86.1537 16.0106 86.5523 15.9153 86.9857 15.9153C87.419 15.9153 87.809 16.0106 88.1557 16.2013C88.511 16.3919 88.7883 16.6606 88.9877 17.0073C89.1957 17.3539 89.2997 17.7656 89.2997 18.2423V22.1553H88.3897ZM91.0109 22.1553V16.0453H91.9339V22.1553H91.0109ZM91.4659 14.7193C91.2926 14.7193 91.1452 14.6586 91.0239 14.5373C90.9026 14.4073 90.8419 14.2556 90.8419 14.0823C90.8419 13.9003 90.9026 13.7486 91.0239 13.6273C91.1452 13.5059 91.2926 13.4453 91.4659 13.4453C91.6566 13.4453 91.8082 13.5059 91.9209 13.6273C92.0422 13.7486 92.1029 13.9003 92.1029 14.0823C92.1029 14.2556 92.0422 14.4073 91.9209 14.5373C91.8082 14.6586 91.6566 14.7193 91.4659 14.7193ZM98.2245 22.1553V18.5673C98.2245 18.0299 98.0641 17.5966 97.7435 17.2673C97.4315 16.9293 97.0155 16.7603 96.4955 16.7603C96.1401 16.7603 95.8281 16.8383 95.5595 16.9943C95.2908 17.1503 95.0785 17.3626 94.9225 17.6313C94.7665 17.8999 94.6885 18.2076 94.6885 18.5543L94.2725 18.3203C94.2725 17.8609 94.3808 17.4493 94.5975 17.0853C94.8141 16.7213 95.1045 16.4353 95.4685 16.2273C95.8411 16.0193 96.2658 15.9153 96.7425 15.9153C97.2105 15.9153 97.6265 16.0279 97.9905 16.2533C98.3545 16.4786 98.6361 16.7819 98.8355 17.1633C99.0435 17.5446 99.1475 17.9606 99.1475 18.4113V22.1553H98.2245ZM93.7785 22.1553V16.0453H94.6885V22.1553H93.7785ZM103.372 24.8593C102.756 24.8593 102.206 24.7423 101.721 24.5083C101.244 24.2829 100.858 23.9623 100.564 23.5463L101.162 22.9483C101.404 23.2776 101.712 23.5333 102.085 23.7153C102.457 23.8973 102.895 23.9883 103.398 23.9883C104.091 23.9883 104.641 23.8019 105.049 23.4293C105.465 23.0566 105.673 22.5496 105.673 21.9083V20.3873L105.855 18.9963L105.673 17.6183V16.0453H106.583V21.9083C106.583 22.4976 106.448 23.0133 106.18 23.4553C105.911 23.8973 105.534 24.2396 105.049 24.4823C104.572 24.7336 104.013 24.8593 103.372 24.8593ZM103.437 22.0903C102.873 22.0903 102.366 21.9559 101.916 21.6873C101.465 21.4186 101.11 21.0503 100.85 20.5823C100.59 20.1143 100.46 19.5856 100.46 18.9963C100.46 18.4069 100.585 17.8826 100.837 17.4233C101.097 16.9553 101.452 16.5869 101.903 16.3183C102.353 16.0496 102.86 15.9153 103.424 15.9153C103.9 15.9153 104.325 16.0063 104.698 16.1883C105.079 16.3703 105.382 16.6303 105.608 16.9683C105.842 17.2976 105.985 17.6876 106.037 18.1383V19.8673C105.985 20.3093 105.842 20.6993 105.608 21.0373C105.374 21.3666 105.07 21.6266 104.698 21.8173C104.325 21.9993 103.905 22.0903 103.437 22.0903ZM103.606 21.2193C104.03 21.2193 104.399 21.1283 104.711 20.9463C105.031 20.7643 105.278 20.5086 105.452 20.1793C105.634 19.8413 105.725 19.4469 105.725 18.9963C105.725 18.5543 105.634 18.1686 105.452 17.8393C105.278 17.5099 105.031 17.2499 104.711 17.0593C104.39 16.8686 104.017 16.7733 103.593 16.7733C103.168 16.7733 102.787 16.8686 102.449 17.0593C102.119 17.2499 101.859 17.5099 101.669 17.8393C101.487 18.1686 101.396 18.5543 101.396 18.9963C101.396 19.4296 101.491 19.8153 101.682 20.1533C101.872 20.4913 102.132 20.7556 102.462 20.9463C102.791 21.1283 103.172 21.2193 103.606 21.2193ZM113.081 22.2853C112.752 22.2853 112.435 22.2419 112.132 22.1553C111.829 22.0599 111.551 21.9299 111.3 21.7653C111.057 21.6006 110.845 21.4056 110.663 21.1803L111.248 20.5823C111.491 20.8769 111.764 21.0979 112.067 21.2453C112.379 21.3839 112.726 21.4533 113.107 21.4533C113.514 21.4533 113.831 21.3753 114.056 21.2193C114.29 21.0633 114.407 20.8466 114.407 20.5693C114.407 20.3093 114.325 20.1056 114.16 19.9583C113.995 19.8109 113.783 19.6939 113.523 19.6073C113.272 19.5206 113.003 19.4383 112.717 19.3603C112.431 19.2736 112.158 19.1696 111.898 19.0483C111.638 18.9183 111.426 18.7406 111.261 18.5153C111.105 18.2899 111.027 17.9953 111.027 17.6313C111.027 17.2846 111.109 16.9856 111.274 16.7343C111.447 16.4743 111.69 16.2749 112.002 16.1363C112.323 15.9889 112.7 15.9153 113.133 15.9153C113.592 15.9153 114.008 15.9976 114.381 16.1623C114.754 16.3269 115.053 16.5696 115.278 16.8903L114.693 17.4753C114.511 17.2413 114.281 17.0636 114.004 16.9423C113.735 16.8123 113.432 16.7473 113.094 16.7473C112.704 16.7473 112.405 16.8253 112.197 16.9813C111.998 17.1286 111.898 17.3236 111.898 17.5663C111.898 17.8003 111.98 17.9866 112.145 18.1253C112.31 18.2553 112.518 18.3636 112.769 18.4503C113.029 18.5283 113.302 18.6106 113.588 18.6973C113.874 18.7753 114.147 18.8836 114.407 19.0223C114.667 19.1523 114.875 19.3343 115.031 19.5683C115.196 19.7936 115.278 20.1013 115.278 20.4913C115.278 21.0373 115.079 21.4749 114.68 21.8043C114.29 22.1249 113.757 22.2853 113.081 22.2853ZM119.488 22.2853C118.899 22.2853 118.361 22.1423 117.876 21.8563C117.399 21.5703 117.018 21.1846 116.732 20.6993C116.455 20.2139 116.316 19.6723 116.316 19.0743C116.316 18.4849 116.455 17.9519 116.732 17.4753C117.018 16.9986 117.399 16.6216 117.876 16.3443C118.361 16.0583 118.899 15.9153 119.488 15.9153C120.086 15.9153 120.623 16.0539 121.1 16.3313C121.577 16.6086 121.954 16.9899 122.231 17.4753C122.517 17.9519 122.66 18.4849 122.66 19.0743C122.66 19.6809 122.517 20.2269 122.231 20.7123C121.954 21.1889 121.577 21.5703 121.1 21.8563C120.623 22.1423 120.086 22.2853 119.488 22.2853ZM119.488 21.4013C119.921 21.4013 120.303 21.3016 120.632 21.1023C120.97 20.9029 121.234 20.6256 121.425 20.2703C121.624 19.9149 121.724 19.5163 121.724 19.0743C121.724 18.6323 121.624 18.2423 121.425 17.9043C121.234 17.5576 120.97 17.2846 120.632 17.0853C120.303 16.8859 119.921 16.7863 119.488 16.7863C119.063 16.7863 118.682 16.8859 118.344 17.0853C118.006 17.2846 117.742 17.5576 117.551 17.9043C117.36 18.2423 117.265 18.6323 117.265 19.0743C117.265 19.5249 117.36 19.9279 117.551 20.2833C117.742 20.6299 118.006 20.9029 118.344 21.1023C118.682 21.3016 119.063 21.4013 119.488 21.4013ZM126.877 22.2853C126.287 22.2853 125.75 22.1423 125.265 21.8563C124.788 21.5703 124.407 21.1846 124.121 20.6993C123.843 20.2139 123.705 19.6723 123.705 19.0743C123.705 18.4849 123.843 17.9519 124.121 17.4753C124.407 16.9986 124.788 16.6216 125.265 16.3443C125.75 16.0583 126.287 15.9153 126.877 15.9153C127.475 15.9153 128.012 16.0539 128.489 16.3313C128.965 16.6086 129.342 16.9899 129.62 17.4753C129.906 17.9519 130.049 18.4849 130.049 19.0743C130.049 19.6809 129.906 20.2269 129.62 20.7123C129.342 21.1889 128.965 21.5703 128.489 21.8563C128.012 22.1423 127.475 22.2853 126.877 22.2853ZM126.877 21.4013C127.31 21.4013 127.691 21.3016 128.021 21.1023C128.359 20.9029 128.623 20.6256 128.814 20.2703C129.013 19.9149 129.113 19.5163 129.113 19.0743C129.113 18.6323 129.013 18.2423 128.814 17.9043C128.623 17.5576 128.359 17.2846 128.021 17.0853C127.691 16.8859 127.31 16.7863 126.877 16.7863C126.452 16.7863 126.071 16.8859 125.733 17.0853C125.395 17.2846 125.13 17.5576 124.94 17.9043C124.749 18.2423 124.654 18.6323 124.654 19.0743C124.654 19.5249 124.749 19.9279 124.94 20.2833C125.13 20.6299 125.395 20.9029 125.733 21.1023C126.071 21.3016 126.452 21.4013 126.877 21.4013ZM135.942 22.1553V18.5673C135.942 18.0299 135.782 17.5966 135.461 17.2673C135.149 16.9293 134.733 16.7603 134.213 16.7603C133.858 16.7603 133.546 16.8383 133.277 16.9943C133.009 17.1503 132.796 17.3626 132.64 17.6313C132.484 17.8999 132.406 18.2076 132.406 18.5543L131.99 18.3203C131.99 17.8609 132.099 17.4493 132.315 17.0853C132.532 16.7213 132.822 16.4353 133.186 16.2273C133.559 16.0193 133.984 15.9153 134.46 15.9153C134.928 15.9153 135.344 16.0279 135.708 16.2533C136.072 16.4786 136.354 16.7819 136.553 17.1633C136.761 17.5446 136.865 17.9606 136.865 18.4113V22.1553H135.942ZM131.496 22.1553V16.0453H132.406V22.1553H131.496ZM142.31 22.1553V13.4713H143.22V22.1553H142.31ZM140.763 16.8643V16.0453H144.754V16.8643H140.763ZM148.56 22.2853C147.971 22.2853 147.433 22.1423 146.948 21.8563C146.471 21.5703 146.09 21.1846 145.804 20.6993C145.527 20.2139 145.388 19.6723 145.388 19.0743C145.388 18.4849 145.527 17.9519 145.804 17.4753C146.09 16.9986 146.471 16.6216 146.948 16.3443C147.433 16.0583 147.971 15.9153 148.56 15.9153C149.158 15.9153 149.695 16.0539 150.172 16.3313C150.649 16.6086 151.026 16.9899 151.303 17.4753C151.589 17.9519 151.732 18.4849 151.732 19.0743C151.732 19.6809 151.589 20.2269 151.303 20.7123C151.026 21.1889 150.649 21.5703 150.172 21.8563C149.695 22.1423 149.158 22.2853 148.56 22.2853ZM148.56 21.4013C148.993 21.4013 149.375 21.3016 149.704 21.1023C150.042 20.9029 150.306 20.6256 150.497 20.2703C150.696 19.9149 150.796 19.5163 150.796 19.0743C150.796 18.6323 150.696 18.2423 150.497 17.9043C150.306 17.5576 150.042 17.2846 149.704 17.0853C149.375 16.8859 148.993 16.7863 148.56 16.7863C148.135 16.7863 147.754 16.8859 147.416 17.0853C147.078 17.2846 146.814 17.5576 146.623 17.9043C146.432 18.2423 146.337 18.6323 146.337 19.0743C146.337 19.5249 146.432 19.9279 146.623 20.2833C146.814 20.6299 147.078 20.9029 147.416 21.1023C147.754 21.3016 148.135 21.4013 148.56 21.4013Z" opacity="0.7"></path>
<path fill="white" d="M47.8085 39.2968C47.0932 40.8797 46.7518 41.5862 45.8307 42.9848C44.5475 44.9378 42.7369 47.3703 40.4933 47.3909C38.5004 47.4095 37.9882 46.0948 35.2827 46.1107C32.5773 46.1265 32.0134 47.4143 30.0204 47.3957C27.7768 47.3758 26.0627 45.1792 24.7781 43.2248C21.1873 37.7627 20.8121 31.3534 23.0267 27.9462C24.6005 25.5232 27.0843 24.1076 29.4188 24.1076C31.7959 24.1076 33.2905 25.4098 35.2566 25.4098C37.1635 25.4098 38.3249 24.1055 41.0737 24.1055C43.1514 24.1055 45.3529 25.2358 46.9218 27.1887C41.7814 30.003 42.6172 37.3356 47.8085 39.2968Z"></path>
<path fill="white" d="M39.2789 20.6916C40.2777 19.4107 41.035 17.6036 40.7596 15.7551C39.1281 15.8666 37.2212 16.904 36.1073 18.2557C35.0961 19.4823 34.261 21.3019 34.5859 23.0704C36.3655 23.1262 38.2084 22.0633 39.2789 20.6916Z"></path>
</svg>
