<svg xmlns="http://www.w3.org/2000/svg" fill="none" viewBox="0 0 17 16" height="16" width="17">
<path fill="white" d="M16.1582 8C16.1582 12.4183 12.5765 16 8.1582 16C3.73993 16 0.158203 12.4183 0.158203 8C0.158203 3.58172 3.73993 0 8.1582 0C12.5765 0 16.1582 3.58172 16.1582 8ZM10.7323 2.98563C9.88864 2.98563 9.2047 3.17725 9.2047 4.51411V6.10374C8.66304 5.74316 8.01276 5.5331 7.31341 5.5331C5.42516 5.5331 3.89445 7.06467 3.89445 8.95393C3.89445 10.8433 5.42516 12.3749 7.31341 12.3749H11.7507C11.7507 11.5307 11.4633 10.8464 10.2231 10.8464H10.162C10.5224 10.3044 10.7323 9.65374 10.7323 8.95393V2.98563ZM9.2047 8.95393C9.2047 9.99913 8.35793 10.8464 7.31341 10.8464C6.26885 10.8464 5.42205 9.99913 5.42205 8.95393C5.42205 7.90882 6.26885 7.06156 7.31341 7.06156C8.35793 7.06156 9.2047 7.90882 9.2047 8.95393Z" clip-rule="evenodd" fill-rule="evenodd"></path>
</svg>
